<?xml version="1.0" encoding="UTF-8"?>
<svg width="752pt" height="752pt" version="1.1" viewBox="0 0 752 752" xmlns="http://www.w3.org/2000/svg">
 <g>
  <path d="m376 0c-49.375 0-98.27 9.7266-143.89 28.621-45.621 18.895-87.07 46.59-121.98 81.508-34.918 34.914-62.613 76.363-81.508 121.98-18.895 45.617-28.621 94.512-28.621 143.89 0 99.723 39.617 195.36 110.13 265.87 70.516 70.516 166.15 110.13 265.87 110.13 99.723 0 195.36-39.617 265.87-110.13 70.512-70.512 110.13-166.15 110.13-265.87 0-99.719-39.613-195.36-110.12-265.87-70.516-70.516-166.15-110.13-265.88-110.13zm0 42.465c43.316 0 86.207 8.625 126.23 25.387 40.02 16.762 76.379 41.332 107.01 72.305s54.926 67.738 71.5 108.21c16.578 40.465 25.105 83.84 25.105 127.64 0 88.461-34.75 173.3-96.605 235.84-61.859 62.551-145.75 97.691-233.23 97.691-43.312 0-86.207-8.625-126.22-25.387-40.02-16.762-76.383-41.332-107.01-72.301-30.629-30.973-54.926-67.742-71.504-108.21-16.574-40.469-25.105-83.84-25.105-127.64s8.5312-87.172 25.105-127.64c16.578-40.469 40.871-77.238 71.5-108.21 30.629-30.969 66.992-55.539 107.01-72.301 40.02-16.762 82.914-25.387 126.23-25.387z" fill="#1e1e1e"/>
  <path d="m591.01 352.32-138.76-138.76c-12.785-12.785-34.098-12.785-46.883 0-12.785 12.785-12.785 34.098 0 46.883l81.93 82.406h-303.09c-18.469 0-33.152 14.68-33.152 33.152 0 18.469 14.68 33.152 33.152 33.152h303.09l-81.93 81.926c-12.785 12.785-12.785 34.098 0 46.883 6.6289 6.6289 15.156 9.9453 23.68 9.9453 8.5234 0 17.051-3.3164 23.68-9.9453l138.29-138.29c6.1562-6.1562 9.9453-14.68 9.9453-23.68 0-8.9961-3.3164-17.52-9.9453-23.676z" fill="#ff001b"/>
 </g>
</svg>
